<svg xmlns="http://www.w3.org/2000/svg" version="1.1" xmlns:xlink="http://www.w3.org/1999/xlink" xmlns:svgjs="http://svgjs.dev/svgjs" width="20" height="20" viewBox="0 0 2000 2000"><g transform="matrix(1,0,0,1,-0.28443113772425477,-0.28443113772459583)"><svg viewBox="0 0 334 334" data-background-color="#ffffff" preserveAspectRatio="xMidYMid meet" height="2000" width="2000" xmlns="http://www.w3.org/2000/svg" xmlns:xlink="http://www.w3.org/1999/xlink"><g id="tight-bounds" transform="matrix(1,0,0,1,0.04749999999998522,0.04750000000001364)"><svg viewBox="0 0 333.90454557049503 333.90454557049503" height="333.90454557049503" width="333.90454557049503"><g><svg></svg></g><g><svg viewBox="0 0 333.90454557049503 333.90454557049503" height="333.90454557049503" width="333.90454557049503"><g><path d="M0 166.952c0-92.205 74.747-166.952 166.952-166.952 92.205 0 166.952 74.747 166.953 166.952 0 92.205-74.747 166.952-166.953 166.953-92.205 0-166.952-74.747-166.952-166.953zM166.952 325.25c87.425 0 158.298-70.872 158.298-158.298 0-87.425-70.872-158.298-158.298-158.297-87.425 0-158.298 70.872-158.297 158.297 0 87.425 70.872 158.298 158.297 158.298z" data-fill-palette-color="tertiary" fill="#31c48d" stroke="transparent"></path><ellipse rx="160.27418187383762" ry="160.27418187383762" cx="166.95227278524752" cy="166.95227278524752" fill="#31c48d" stroke="transparent" stroke-width="0" fill-opacity="1" data-fill-palette-color="tertiary"></ellipse></g><g transform="matrix(1,0,0,1,122.89143907648467,71.17305217166896)"><svg viewBox="0 0 88.12166741752569 191.55844122715712" height="191.55844122715712" width="88.12166741752569"><g><svg viewBox="0 0 88.12166741752569 191.55844122715712" height="191.55844122715712" width="88.12166741752569"><g><svg viewBox="0 0 175.8930966556658 382.35553644637434" height="191.55844122715712" width="88.12166741752569"><g transform="matrix(1,0,0,1,16.792383014052234,190.79709521921723)"><svg viewBox="0 0 142.30833062756133 191.55844122715712" height="191.55844122715712" width="142.30833062756133"><g id="textblocktransform"><svg viewBox="0 0 142.30833062756133 191.55844122715712" height="191.55844122715712" width="142.30833062756133" id="textblock"><g><svg viewBox="0 0 142.30833062756133 191.55844122715712" height="191.55844122715712" width="142.30833062756133"><g transform="matrix(1,0,0,1,0,0)"><svg width="142.30833062756133" viewBox="2.55 -34.55 26.149999999999995 35.199999999999996" height="191.55844122715712" data-palette-color="#ffffff"><path d="M28.5-33L27.6-29.3Q26.35-29.7 24.95-30.03 23.55-30.35 21.88-30.58 20.2-30.8 18.35-30.8L18.35-30.8Q15.35-30.8 13.25-29.5 11.15-28.2 9.83-26.18 8.5-24.15 7.9-21.65 7.3-19.15 7.3-16.7L7.3-16.7Q7.3-13.6 8.18-11.08 9.05-8.55 10.58-6.78 12.1-5 14.13-4.05 16.15-3.1 18.4-3.1L18.4-3.1Q20.5-3.1 22.25-3.33 24-3.55 25.25-3.8L25.25-3.8Q26.7-4.1 27.85-4.5L27.85-4.5 28.7-0.95Q27.35-0.5 25.7-0.15L25.7-0.15Q24.3 0.15 22.45 0.4 20.6 0.65 18.4 0.65L18.4 0.65Q14.45 0.65 11.48-0.65 8.5-1.95 6.53-4.28 4.55-6.6 3.55-9.78 2.55-12.95 2.55-16.75L2.55-16.75Q2.55-21.1 3.75-24.43 4.95-27.75 7.05-30 9.15-32.25 12.05-33.4 14.95-34.55 18.4-34.55L18.4-34.55Q20.5-34.55 22.33-34.33 24.15-34.1 25.68-33.75 27.2-33.4 28.5-33L28.5-33Z" opacity="1" transform="matrix(1,0,0,1,0,0)" fill="#ffffff" class="wordmark-text-0" data-fill-palette-color="quaternary" id="text-0"></path></svg></g></svg></g></svg></g></svg></g><g><svg viewBox="0 0 175.8930966556658 145.5747446480749" height="145.5747446480749" width="175.8930966556658"><g><svg xmlns="http://www.w3.org/2000/svg" xmlns:xlink="http://www.w3.org/1999/xlink" version="1.1" x="0" y="0" viewBox="2.4669999999999996 11.581 95.006 78.63000000000001" enable-background="new 0 0 100 100" xml:space="preserve" height="145.5747446480749" width="175.8930966556658" class="icon-icon-0" data-fill-palette-color="quaternary" id="icon-0"><g fill="#ffffff" data-fill-palette-color="quaternary"><path d="M23.699 19.45c0-4.362-3.534-7.869-7.895-7.869-4.348 0-7.868 3.507-7.868 7.869 0 4.347 3.52 7.882 7.868 7.882C20.165 27.332 23.699 23.797 23.699 19.45L23.699 19.45z" fill="#ffffff" data-fill-palette-color="quaternary"></path></g><g fill="#ffffff" data-fill-palette-color="quaternary"><path d="M2.468 57.337c0 2.535 2.053 4.601 4.587 4.614 0.014 0 0.014 23.658 0.014 23.658 0 2.546 2.067 4.602 4.601 4.602s4.601-2.056 4.601-4.602c0 2.546 2.067 4.602 4.601 4.602 2.534 0 4.601-2.056 4.601-4.602v-0.813c-7.975-9.215-7.975-22.898 0-32.112V42.161l4.841 6.228c2.161-1.453 4.521-2.548 7.028-3.268L26.979 31.812c-0.693-0.88-1.76-1.413-2.894-1.413h-4.814l-3.467 5-3.44-5H6.148c-2.027 0-3.681 1.651-3.681 3.681V57.337" fill="#ffffff" data-fill-palette-color="quaternary"></path></g><g fill="#ffffff" data-fill-palette-color="quaternary"><path d="M68.334 72.326h23.045c1.106 0 2 0.882 2 1.974v4.521c0 1.121-0.894 2.001-2 2.001H65.413C66.907 78.194 67.894 75.313 68.334 72.326z" fill="#ffffff" data-fill-palette-color="quaternary"></path></g><g fill="#ffffff" data-fill-palette-color="quaternary"><path d="M67.787 62.472h25.592c1.094 0 1.987 0.894 1.987 2.001v4.521c0 1.094-0.894 2.001-1.987 2.001H68.494C68.761 68.127 68.521 65.258 67.787 62.472z" fill="#ffffff" data-fill-palette-color="quaternary"></path></g><g fill="#ffffff" data-fill-palette-color="quaternary"><path d="M62.586 52.643h26.766c1.094 0 1.986 0.88 1.986 2.001v4.507c0 1.107-0.893 1.987-1.986 1.987H67.387C66.374 58.017 64.746 55.122 62.586 52.643z" fill="#ffffff" data-fill-palette-color="quaternary"></path></g><g fill="#ffffff" data-fill-palette-color="quaternary"><path d="M56.265 32.946h39.208c1.107 0 2 0.905 2 2.001v4.521c0 1.092-0.893 2-2 2H56.265c-1.106 0-2.001-0.908-2.001-2v-4.521C54.264 33.852 55.158 32.946 56.265 32.946z" fill="#ffffff" data-fill-palette-color="quaternary"></path></g><g fill="#ffffff" data-fill-palette-color="quaternary"><path d="M54.397 23.117h39.222c1.094 0 1.986 0.88 1.986 2v4.507c0 1.107-0.893 2.002-1.986 2.002H54.397c-1.093 0-2-0.895-2-2.002v-4.507C52.397 23.997 53.305 23.117 54.397 23.117z" fill="#ffffff" data-fill-palette-color="quaternary"></path></g><g fill="#ffffff" data-fill-palette-color="quaternary"><path d="M61.332 51.309c-4.027-4.001-9.335-6.494-14.989-7.026 0.227-0.867 1.013-1.482 1.934-1.482h39.208c1.107 0 2 0.881 2 1.987v4.534c0 1.094-0.893 1.987-2 1.987H61.332z" fill="#ffffff" data-fill-palette-color="quaternary"></path></g><path d="M65.521 68.739c0 11.87-9.615 21.472-21.471 21.472-11.869 0-21.484-9.602-21.484-21.472 0-11.868 9.615-21.484 21.484-21.484C55.905 47.255 65.521 56.871 65.521 68.739L65.521 68.739zM43.969 65.993c-0.52 0-1.041-0.095-1.56-0.229-0.44-0.133-0.881-0.32-1.267-0.586-0.374-0.254-0.694-0.574-0.921-0.96-0.187-0.32-0.28-0.642-0.28-1.014 0-0.348 0.093-0.694 0.28-1 0.227-0.387 0.547-0.706 0.921-0.974 0.386-0.24 0.826-0.441 1.267-0.574 0.533-0.147 1.093-0.226 1.64-0.226 0.546 0 1.093 0.078 1.627 0.226 0.453 0.133 0.894 0.334 1.267 0.574 0.186 0.134 0.36 0.292 0.52 0.44l4.867-2.2c-0.453-0.733-1-1.389-1.652-1.949-0.895-0.747-1.895-1.332-2.975-1.718-0.72-0.254-1.44-0.441-2.187-0.534v-1.534h-2.935v1.534c-0.747 0.093-1.48 0.28-2.174 0.534-1.094 0.386-2.106 0.971-2.987 1.718-0.853 0.748-1.56 1.655-2.053 2.682-0.441 0.934-0.694 1.961-0.694 3.001 0 1.052 0.253 2.081 0.694 3.015 0.493 1.039 1.2 1.932 2.053 2.693 0.881 0.746 1.894 1.333 2.987 1.706 1.134 0.428 2.348 0.613 3.561 0.64 0.574-0.026 1.147 0.067 1.707 0.214 0.453 0.134 0.894 0.334 1.267 0.602 0.387 0.252 0.693 0.586 0.934 0.972 0.173 0.295 0.279 0.642 0.279 0.989 0 0.358-0.106 0.706-0.279 1.011-0.24 0.375-0.547 0.709-0.934 0.963-0.374 0.266-0.814 0.466-1.267 0.586-0.534 0.147-1.081 0.226-1.627 0.226-0.547 0-1.107-0.078-1.64-0.226-0.44-0.12-0.881-0.32-1.267-0.586-0.174-0.134-0.348-0.268-0.507-0.428l-4.868 2.186c0.44 0.749 1 1.388 1.653 1.961 0.881 0.748 1.894 1.334 2.987 1.72 0.694 0.268 1.427 0.429 2.174 0.534v1.521h2.935v-1.521c0.746-0.105 1.466-0.267 2.187-0.534 1.08-0.386 2.08-0.972 2.975-1.72 0.853-0.733 1.561-1.651 2.04-2.667 0.467-0.947 0.693-1.985 0.693-3.025 0-1.041-0.227-2.081-0.693-3.015-0.479-1.014-1.188-1.934-2.04-2.669-0.895-0.759-1.895-1.346-2.975-1.731-1.174-0.414-2.414-0.627-3.654-0.627" fill="#ffffff" data-fill-palette-color="quaternary"></path></svg></g></svg></g><g></g></svg></g></svg></g></svg></g></svg></g><defs></defs></svg><rect width="333.90454557049503" height="333.90454557049503" fill="none" stroke="none" visibility="hidden"></rect></g></svg></g></svg>